<svg width="22" height="21" viewBox="0 0 22 21" fill="none" xmlns="http://www.w3.org/2000/svg">
<path d="M10.167 1.43859C10.3793 0.78537 11.3034 0.78537 11.5156 1.43859L13.4368 7.35129C13.5317 7.64342 13.8039 7.8412 14.1111 7.8412H20.3281C21.0149 7.8412 21.3005 8.7201 20.7448 9.12381L15.7152 12.7781C15.4667 12.9586 15.3627 13.2786 15.4576 13.5708L17.3788 19.4835C17.591 20.1367 16.8434 20.6799 16.2877 20.2762L11.2581 16.6219C11.0096 16.4414 10.6731 16.4414 10.4246 16.6219L5.39493 20.2762C4.83927 20.6799 4.09164 20.1367 4.30388 19.4835L6.22503 13.5708C6.31995 13.2786 6.21597 12.9586 5.96747 12.7781L0.937827 9.12381C0.382167 8.7201 0.667738 7.8412 1.35457 7.8412H7.57155C7.87872 7.8412 8.15094 7.64342 8.24586 7.35129L10.167 1.43859Z" fill="#FCEC36"/>
</svg>
