<svg width="21" height="21" viewBox="0 0 21 21" fill="none" xmlns="http://www.w3.org/2000/svg">
<path d="M10.6442 0.92627C8.66635 0.92627 6.73295 1.51276 5.08846 2.61157C3.44397 3.71039 2.16225 5.27217 1.40537 7.09943C0.648498 8.92669 0.450465 10.9374 0.836317 12.8772C1.22217 14.817 2.17458 16.5988 3.5731 17.9973C4.97162 19.3959 6.75345 20.3483 8.69326 20.7341C10.6331 21.12 12.6437 20.9219 14.471 20.1651C16.2983 19.4082 17.86 18.1265 18.9589 16.482C20.0577 14.8375 20.6442 12.9041 20.6442 10.9263C20.6442 9.61305 20.3855 8.31269 19.883 7.09943C19.3804 5.88618 18.6438 4.78379 17.7152 3.8552C16.7866 2.92661 15.6843 2.19002 14.471 1.68747C13.2577 1.18493 11.9574 0.92627 10.6442 0.92627ZM10.6442 2.92627C12.6989 2.92545 14.6739 3.7212 16.1542 5.14627C14.6262 6.04247 13.007 6.77326 11.3242 7.32627C10.4867 5.88309 9.52644 4.51471 8.45416 3.23627C9.16613 3.03127 9.90328 2.92692 10.6442 2.92627ZM6.53417 4.07627C7.58185 5.27477 8.52213 6.56306 9.34416 7.92627C7.38127 8.41367 5.36667 8.66214 3.34417 8.66626H2.98417C3.55137 6.74591 4.8181 5.10807 6.53417 4.07627ZM4.64417 16.2363C3.34292 14.775 2.63025 12.8829 2.64417 10.9263C2.64417 10.8263 2.64417 10.7263 2.64417 10.6363H3.32417C5.69154 10.6151 8.04556 10.2788 10.3242 9.63626C10.6442 10.2463 10.9442 10.8763 11.2342 11.5263C9.67566 12.0757 8.22417 12.8911 6.94417 13.9363L6.64417 14.1763C5.93128 14.8165 5.26306 15.5048 4.64417 16.2363ZM10.6442 18.9263C9.05025 18.9298 7.49236 18.4523 6.17417 17.5563C6.66101 16.9979 7.18201 16.4702 7.73417 15.9763L8.05416 15.7063C9.23733 14.7112 10.5931 13.9417 12.0542 13.4363C12.6555 15.0623 13.1237 16.7344 13.4542 18.4363C12.554 18.7649 11.6025 18.9309 10.6442 18.9263ZM15.2742 17.4363C14.947 15.9228 14.5194 14.4329 13.9942 12.9763H14.3342C14.3736 12.9665 14.4148 12.9665 14.4542 12.9763H14.5642H14.6642H15.1442C16.1965 12.9793 17.2409 13.1584 18.2342 13.5063C17.6885 15.0966 16.652 16.4727 15.2742 17.4363ZM15.1442 10.9263C14.9342 10.9263 14.7242 10.9263 14.5242 10.9263C14.3947 10.9099 14.2636 10.9099 14.1342 10.9263C13.8624 10.943 13.5919 10.9764 13.3242 11.0263H13.2242C12.9342 10.3563 12.6342 9.70626 12.3042 9.02627C14.0948 8.41132 15.8146 7.60675 17.4342 6.62627C18.2376 7.91563 18.6573 9.40712 18.6442 10.9263C18.6442 11.0963 18.6442 11.2663 18.6442 11.4363C17.5108 11.0865 16.3302 10.9144 15.1442 10.9263Z" fill="white"/>
</svg>
