<svg width="27" height="18" viewBox="0 0 27 18" fill="none" xmlns="http://www.w3.org/2000/svg">
<path d="M24.0649 1.6112H17.5307V3.42841H24.0906L24.0649 1.6112ZM22.6859 14.1125C22.1902 14.441 21.6048 14.6076 21.0104 14.5894C20.617 14.6304 20.2193 14.5898 19.8423 14.47C19.4653 14.3503 19.1171 14.154 18.8195 13.8935C18.2692 13.2695 17.9827 12.4563 18.0204 11.6252H26.5522C26.6138 10.7598 26.5398 9.89014 26.3332 9.04757C26.1332 8.24597 25.7834 7.48945 25.3021 6.81795C24.8177 6.16659 24.192 5.63344 23.472 5.2585C22.671 4.86354 21.7875 4.66475 20.8944 4.67854C20.0545 4.67239 19.2219 4.83453 18.4457 5.1554C17.7349 5.45504 17.0909 5.89315 16.5512 6.4442C16.013 7.00626 15.5962 7.67309 15.3268 8.40317C15.0377 9.19134 14.8936 10.0253 14.9015 10.8648C14.8882 11.7162 15.0279 12.563 15.3139 13.365C15.5568 14.0913 15.9424 14.7617 16.4481 15.3369C16.9712 15.9016 17.6141 16.342 18.3297 16.6257C19.1276 16.9297 19.9763 17.0784 20.83 17.0639C22.0278 17.1012 23.2104 16.7877 24.2324 16.1617C25.2646 15.4282 26.0078 14.3568 26.3332 13.1331H23.4849C23.3324 13.5379 23.0518 13.8819 22.6859 14.1125ZM18.2653 8.8027C18.3656 8.48138 18.5321 8.18463 18.7541 7.93158C18.976 7.67853 19.2486 7.47478 19.5541 7.33347C19.9587 7.15134 20.3993 7.06322 20.8429 7.07571C21.1633 7.04834 21.4858 7.09061 21.7884 7.19962C22.0909 7.30862 22.3663 7.48178 22.5956 7.70722C23.0336 8.24328 23.3146 8.89007 23.4076 9.57598H18.0591C18.0799 9.31407 18.1274 9.05497 18.2008 8.8027H18.2653ZM11.4475 8.18408C12.1035 7.91093 12.6734 7.46564 13.0972 6.89528C13.4867 6.28955 13.6802 5.57855 13.6514 4.85898C13.6766 4.20277 13.5487 3.5497 13.2776 2.95155C13.0499 2.43335 12.6844 1.98757 12.2208 1.66275C11.7293 1.32505 11.1712 1.09654 10.584 0.992579C9.88914 0.846834 9.18036 0.777685 8.4704 0.786372H0.776276V16.9995H8.63795C9.35541 17 10.07 16.909 10.7645 16.7288C11.4227 16.5585 12.0463 16.2751 12.6074 15.8911C13.151 15.5144 13.5936 15.0098 13.8962 14.4219C14.2312 13.7643 14.3952 13.033 14.3731 12.2953C14.3975 11.3812 14.1411 10.4816 13.6385 9.71775C13.0979 8.94952 12.2962 8.40435 11.3831 8.18408H11.4475ZM4.34625 3.55729H7.68424C7.9909 3.55691 8.29703 3.58278 8.59928 3.63462C8.8776 3.67586 9.14488 3.77226 9.38545 3.91815C9.61788 4.04963 9.80622 4.24693 9.92675 4.48522C10.076 4.77097 10.1472 5.09108 10.133 5.41316C10.157 5.69056 10.1145 5.96969 10.0092 6.22743C9.90387 6.48517 9.73865 6.7141 9.52722 6.89528C9.06598 7.21236 8.51407 7.3707 7.95488 7.34636H4.34625V3.55729ZM10.584 13.146C10.4516 13.4086 10.2514 13.6311 10.0041 13.7904C9.74671 13.9504 9.46312 14.0639 9.16636 14.1254C8.8365 14.1993 8.49907 14.2339 8.16109 14.2285H4.2947V9.78219H8.16109C8.82459 9.75313 9.47981 9.9384 10.0299 10.3106C10.2783 10.5336 10.4708 10.812 10.5917 11.1232C10.7127 11.4344 10.7586 11.7698 10.7258 12.102C10.7606 12.4563 10.7121 12.8138 10.584 13.146Z" fill="white"/>
</svg>
