<svg width="21" height="21" viewBox="0 0 21 21" fill="none" xmlns="http://www.w3.org/2000/svg">
<path d="M15.5066 4.38627C15.2692 4.38627 15.0372 4.45665 14.8399 4.58851C14.6425 4.72036 14.4887 4.90778 14.3979 5.12705C14.3071 5.34632 14.2833 5.5876 14.3296 5.82038C14.3759 6.05315 14.4902 6.26697 14.658 6.4348C14.8259 6.60262 15.0397 6.71691 15.2725 6.76321C15.5052 6.80951 15.7465 6.78575 15.9658 6.69492C16.1851 6.6041 16.3725 6.45029 16.5043 6.25295C16.6362 6.05561 16.7066 5.82361 16.7066 5.58627C16.7066 5.26801 16.5801 4.96279 16.3551 4.73774C16.13 4.5127 15.8248 4.38627 15.5066 4.38627ZM20.1066 6.80627C20.0871 5.97657 19.9317 5.15567 19.6466 4.37627C19.3923 3.7094 18.9965 3.10555 18.4866 2.60627C17.9914 2.0937 17.3861 1.70045 16.7166 1.45627C15.9392 1.16243 15.1174 1.00348 14.2866 0.986269C13.2266 0.926269 12.8866 0.92627 10.1666 0.92627C7.44656 0.92627 7.10656 0.926269 6.04657 0.986269C5.21572 1.00348 4.39391 1.16243 3.61656 1.45627C2.94824 1.70292 2.3435 2.09583 1.84657 2.60627C1.33399 3.10145 0.940741 3.70671 0.696565 4.37627C0.402726 5.15361 0.243775 5.97542 0.226565 6.80627C0.166565 7.86627 0.166565 8.20627 0.166565 10.9263C0.166565 13.6463 0.166565 13.9863 0.226565 15.0463C0.243775 15.8771 0.402726 16.6989 0.696565 17.4763C0.940741 18.1458 1.33399 18.7511 1.84657 19.2463C2.3435 19.7567 2.94824 20.1496 3.61656 20.3963C4.39391 20.6901 5.21572 20.8491 6.04657 20.8663C7.10656 20.9263 7.44656 20.9263 10.1666 20.9263C12.8866 20.9263 13.2266 20.9263 14.2866 20.8663C15.1174 20.8491 15.9392 20.6901 16.7166 20.3963C17.3861 20.1521 17.9914 19.7588 18.4866 19.2463C18.9988 18.7488 19.3949 18.1445 19.6466 17.4763C19.9317 16.6969 20.0871 15.876 20.1066 15.0463C20.1066 13.9863 20.1666 13.6463 20.1666 10.9263C20.1666 8.20627 20.1666 7.86627 20.1066 6.80627ZM18.3066 14.9263C18.2993 15.561 18.1843 16.19 17.9666 16.7863C17.8069 17.2215 17.5504 17.6147 17.2166 17.9363C16.8922 18.2668 16.4998 18.5227 16.0666 18.6863C15.4703 18.904 14.8413 19.019 14.2066 19.0263C13.2066 19.0763 12.8366 19.0863 10.2066 19.0863C7.57656 19.0863 7.20656 19.0863 6.20656 19.0263C5.54746 19.0386 4.89116 18.9371 4.26656 18.7263C3.85235 18.5543 3.47792 18.2991 3.16656 17.9763C2.83465 17.655 2.58141 17.2615 2.42657 16.8263C2.18242 16.2214 2.04701 15.5782 2.02656 14.9263C2.02656 13.9263 1.96656 13.5563 1.96656 10.9263C1.96656 8.29627 1.96656 7.92627 2.02656 6.92627C2.03105 6.27733 2.14952 5.63421 2.37656 5.02627C2.55261 4.60418 2.82283 4.22793 3.16656 3.92627C3.47038 3.58244 3.84585 3.30937 4.26656 3.12627C4.87612 2.90631 5.51856 2.79135 6.16656 2.78627C7.16656 2.78627 7.53656 2.72627 10.1666 2.72627C12.7966 2.72627 13.1666 2.72627 14.1666 2.78627C14.8013 2.79355 15.4303 2.90852 16.0266 3.12627C16.481 3.29492 16.8889 3.56912 17.2166 3.92627C17.5443 4.23345 17.8003 4.609 17.9666 5.02627C18.1888 5.6352 18.3039 6.27805 18.3066 6.92627C18.3566 7.92627 18.3666 8.29627 18.3666 10.9263C18.3666 13.5563 18.3566 13.9263 18.3066 14.9263ZM10.1666 5.79627C9.15238 5.79825 8.16153 6.1008 7.31922 6.66569C6.47691 7.23058 5.82094 8.03247 5.4342 8.97002C5.04745 9.90758 4.94729 10.9387 5.14636 11.9332C5.34543 12.9277 5.8348 13.8408 6.55264 14.5572C7.27048 15.2737 8.18458 15.7613 9.17942 15.9584C10.1743 16.1556 11.2052 16.0534 12.142 15.6648C13.0788 15.2762 13.8794 14.6187 14.4427 13.7753C15.0059 12.9319 15.3066 11.9405 15.3066 10.9263C15.3079 10.2514 15.1758 9.58288 14.9178 8.95923C14.6598 8.33558 14.2811 7.76908 13.8034 7.29232C13.3257 6.81556 12.7585 6.43795 12.1344 6.1812C11.5102 5.92445 10.8415 5.79363 10.1666 5.79627ZM10.1666 14.2563C9.50795 14.2563 8.86413 14.061 8.31652 13.6951C7.7689 13.3292 7.34209 12.8091 7.09005 12.2006C6.83801 11.5921 6.77206 10.9226 6.90055 10.2766C7.02904 9.63066 7.34619 9.03731 7.8119 8.5716C8.27761 8.1059 8.87096 7.78874 9.51691 7.66025C10.1629 7.53177 10.8324 7.59771 11.4409 7.84975C12.0494 8.10179 12.5695 8.5286 12.9354 9.07622C13.3013 9.62384 13.4966 10.2677 13.4966 10.9263C13.4966 11.3636 13.4104 11.7966 13.2431 12.2006C13.0757 12.6046 12.8305 12.9717 12.5212 13.2809C12.212 13.5902 11.8449 13.8354 11.4409 14.0028C11.0369 14.1701 10.6039 14.2563 10.1666 14.2563Z" fill="white"/>
</svg>
