<svg width="25" height="21" viewBox="0 0 25 21" fill="none" xmlns="http://www.w3.org/2000/svg">
<path d="M24.9282 3.3224C24.0049 3.72298 23.0284 3.98778 22.0292 4.10858C23.0834 3.4788 23.8734 2.48804 24.2526 1.3201C23.262 1.90981 22.1775 2.3253 21.0465 2.5485C20.2904 1.72863 19.2837 1.18288 18.1841 0.996844C17.0844 0.810808 15.9542 0.99501 14.9705 1.52056C13.9869 2.04611 13.2055 2.88328 12.7489 3.90078C12.2923 4.91827 12.1863 6.05854 12.4476 7.14274C10.4446 7.04143 8.48533 6.51988 6.69703 5.61198C4.90873 4.70407 3.33143 3.43012 2.06759 1.87288C1.62431 2.64698 1.39138 3.52364 1.39197 4.41568C1.3904 5.2441 1.59369 6.06005 1.98376 6.79088C2.37383 7.52172 2.93856 8.14477 3.62767 8.60455C2.82672 8.58276 2.04288 8.36783 1.34283 7.97806V8.03948C1.34884 9.20019 1.75557 10.3232 2.49424 11.2186C3.2329 12.1139 4.25816 12.7266 5.39657 12.9531C4.95835 13.0865 4.50337 13.1568 4.04533 13.1619C3.72826 13.1582 3.41199 13.1295 3.09945 13.0759C3.42364 14.0744 4.05101 14.947 4.89425 15.5723C5.73749 16.1975 6.75467 16.5444 7.80425 16.5646C6.03191 17.9592 3.84373 18.7203 1.58851 18.7266C1.1779 18.728 0.767614 18.7033 0.360107 18.6529C2.66267 20.1396 5.34598 20.9288 8.08678 20.9255C9.97815 20.9451 11.8545 20.5877 13.6062 19.874C15.3578 19.1604 16.9498 18.1049 18.2889 16.7691C19.6281 15.4334 20.6877 13.8442 21.4059 12.0943C22.124 10.3445 22.4862 8.46909 22.4714 6.57768C22.4714 6.36885 22.4714 6.14773 22.4714 5.92662C23.4354 5.20777 24.2667 4.32653 24.9282 3.3224Z" fill="white"/>
</svg>
