<svg width="28" height="27" viewBox="0 0 28 27" fill="none" xmlns="http://www.w3.org/2000/svg">
<mask id="mask0_4_309" style="mask-type:alpha" maskUnits="userSpaceOnUse" x="0" y="0" width="28" height="27">
<rect x="0.576477" y="0.050293" width="26.6544" height="26.6544" fill="#D9D9D9"/>
</mask>
<g mask="url(#mask0_4_309)">
<path d="M8.35067 24.4835V17.8199H6.57371C5.8333 17.8199 5.20396 17.5607 4.68568 17.0425C4.1674 16.5242 3.90826 15.8948 3.90826 15.1544C3.90826 14.6177 4.05634 14.1225 4.3525 13.669C4.64866 13.2155 5.03737 12.8777 5.51863 12.6556L12.7931 9.43486V8.71297C12.1267 8.47234 11.5899 8.06974 11.1827 7.50519C10.7755 6.94063 10.5719 6.30667 10.5719 5.60329C10.5719 4.67779 10.8958 3.89111 11.5436 3.24326C12.1915 2.59541 12.9782 2.27148 13.9037 2.27148C14.8292 2.27148 15.6158 2.59541 16.2637 3.24326C16.9115 3.89111 17.2355 4.67779 17.2355 5.60329H15.0143C15.0143 5.28862 14.9078 5.02485 14.695 4.81198C14.4821 4.59912 14.2183 4.49269 13.9037 4.49269C13.589 4.49269 13.3252 4.59912 13.1124 4.81198C12.8995 5.02485 12.7931 5.28862 12.7931 5.60329C12.7931 5.91796 12.8995 6.18172 13.1124 6.39459C13.3252 6.60745 13.589 6.71389 13.9037 6.71389C14.2183 6.71389 14.4821 6.82032 14.695 7.03318C14.9078 7.24605 15.0143 7.50982 15.0143 7.82449V9.43486L22.2887 12.6556C22.77 12.8777 23.1587 13.2155 23.4548 13.669C23.751 14.1225 23.8991 14.6177 23.8991 15.1544C23.8991 15.8948 23.6399 16.5242 23.1217 17.0425C22.6034 17.5607 21.974 17.8199 21.2336 17.8199H19.4567V24.4835H8.35067ZM6.57371 15.5987H8.35067V14.4881H19.4567V15.5987H21.2336C21.3632 15.5987 21.4696 15.5524 21.5529 15.4599C21.6362 15.3673 21.6779 15.247 21.6779 15.0989C21.6779 15.0064 21.6547 14.9277 21.6085 14.8629C21.5622 14.7981 21.4928 14.7472 21.4002 14.7102L13.9037 11.3784L6.40711 14.7102C6.31456 14.7472 6.24515 14.7981 6.19888 14.8629C6.1526 14.9277 6.12946 15.0064 6.12946 15.0989C6.12946 15.247 6.17111 15.3673 6.25441 15.4599C6.3377 15.5524 6.44414 15.5987 6.57371 15.5987ZM10.5719 22.2623H17.2355V16.7093H10.5719V22.2623Z" fill="white"/>
</g>
</svg>
