<svg width="21" height="15" viewBox="0 0 21 15" fill="none" xmlns="http://www.w3.org/2000/svg">
<path d="M0.790894 14.6487V8.64868C0.790894 8.19868 0.88256 7.79035 1.06589 7.42368C1.24923 7.05701 1.49089 6.73202 1.79089 6.44868V3.64868C1.79089 2.81535 2.08256 2.10702 2.66589 1.52368C3.24923 0.940348 3.95756 0.648682 4.79089 0.648682H8.79089C9.17423 0.648682 9.53256 0.719515 9.86589 0.861182C10.1992 1.00285 10.5076 1.19868 10.7909 1.44868C11.0742 1.19868 11.3826 1.00285 11.7159 0.861182C12.0492 0.719515 12.4076 0.648682 12.7909 0.648682H16.7909C17.6242 0.648682 18.3326 0.940348 18.9159 1.52368C19.4992 2.10702 19.7909 2.81535 19.7909 3.64868V6.44868C20.0909 6.73202 20.3326 7.05701 20.5159 7.42368C20.6992 7.79035 20.7909 8.19868 20.7909 8.64868V14.6487H18.7909V12.6487H2.79089V14.6487H0.790894ZM11.7909 5.64868H17.7909V3.64868C17.7909 3.36535 17.6951 3.12785 17.5034 2.93618C17.3117 2.74452 17.0742 2.64868 16.7909 2.64868H12.7909C12.5076 2.64868 12.2701 2.74452 12.0784 2.93618C11.8867 3.12785 11.7909 3.36535 11.7909 3.64868V5.64868ZM3.79089 5.64868H9.79089V3.64868C9.79089 3.36535 9.69506 3.12785 9.50339 2.93618C9.31173 2.74452 9.07423 2.64868 8.79089 2.64868H4.79089C4.50756 2.64868 4.27006 2.74452 4.07839 2.93618C3.88673 3.12785 3.79089 3.36535 3.79089 3.64868V5.64868ZM2.79089 10.6487H18.7909V8.64868C18.7909 8.36535 18.6951 8.12785 18.5034 7.93618C18.3117 7.74451 18.0742 7.64868 17.7909 7.64868H3.79089C3.50756 7.64868 3.27006 7.74451 3.07839 7.93618C2.88673 8.12785 2.79089 8.36535 2.79089 8.64868V10.6487Z" fill="white"/>
</svg>
