<svg width="15" height="21" viewBox="0 0 15 21" fill="none" xmlns="http://www.w3.org/2000/svg">
<path d="M7.52069 20.6487C5.75402 20.6487 4.31236 20.3695 3.19569 19.8112C2.07902 19.2528 1.52069 18.532 1.52069 17.6487C1.52069 17.2487 1.64152 16.8778 1.88319 16.5362C2.12486 16.1945 2.46236 15.8987 2.89569 15.6487L4.47069 17.1237C4.32069 17.1903 4.15819 17.2653 3.98319 17.3487C3.80819 17.432 3.67069 17.532 3.57069 17.6487C3.78736 17.9153 4.28736 18.1487 5.07069 18.3487C5.85402 18.5487 6.67069 18.6487 7.52069 18.6487C8.37069 18.6487 9.19152 18.5487 9.98319 18.3487C10.7749 18.1487 11.279 17.9153 11.4957 17.6487C11.379 17.5153 11.229 17.407 11.0457 17.3237C10.8624 17.2403 10.6874 17.1653 10.5207 17.0987L12.0707 15.5987C12.5374 15.8653 12.8957 16.1695 13.1457 16.5112C13.3957 16.8528 13.5207 17.232 13.5207 17.6487C13.5207 18.532 12.9624 19.2528 11.8457 19.8112C10.729 20.3695 9.28736 20.6487 7.52069 20.6487ZM7.54569 15.1487C9.19569 13.932 10.4374 12.7112 11.2707 11.4862C12.104 10.2612 12.5207 9.03201 12.5207 7.79868C12.5207 6.09868 11.979 4.81535 10.8957 3.94868C9.81236 3.08201 8.68736 2.64868 7.52069 2.64868C6.35402 2.64868 5.22902 3.08201 4.14569 3.94868C3.06236 4.81535 2.52069 6.09868 2.52069 7.79868C2.52069 8.91535 2.92902 10.0778 3.74569 11.2862C4.56236 12.4945 5.82902 13.782 7.54569 15.1487ZM7.52069 17.6487C5.17069 15.9153 3.41652 14.232 2.25819 12.5987C1.09986 10.9653 0.520691 9.36535 0.520691 7.79868C0.520691 6.61535 0.733191 5.57785 1.15819 4.68618C1.58319 3.79451 2.12902 3.04868 2.79569 2.44868C3.46236 1.84868 4.21236 1.39868 5.04569 1.09868C5.87902 0.798682 6.70402 0.648682 7.52069 0.648682C8.33736 0.648682 9.16236 0.798682 9.99569 1.09868C10.829 1.39868 11.579 1.84868 12.2457 2.44868C12.9124 3.04868 13.4582 3.79451 13.8832 4.68618C14.3082 5.57785 14.5207 6.61535 14.5207 7.79868C14.5207 9.36535 13.9415 10.9653 12.7832 12.5987C11.6249 14.232 9.87069 15.9153 7.52069 17.6487ZM7.52069 9.64868C8.07069 9.64868 8.54152 9.45285 8.93319 9.06118C9.32486 8.66952 9.52069 8.19868 9.52069 7.64868C9.52069 7.09868 9.32486 6.62785 8.93319 6.23618C8.54152 5.84451 8.07069 5.64868 7.52069 5.64868C6.97069 5.64868 6.49986 5.84451 6.10819 6.23618C5.71652 6.62785 5.52069 7.09868 5.52069 7.64868C5.52069 8.19868 5.71652 8.66952 6.10819 9.06118C6.49986 9.45285 6.97069 9.64868 7.52069 9.64868Z" fill="white"/>
</svg>
