<svg width="19" height="24" viewBox="0 0 19 24" fill="none" xmlns="http://www.w3.org/2000/svg">
<path d="M9.32517 23.371L1.32885 17.3738C1.0512 17.1702 0.833706 16.911 0.676371 16.5963C0.519036 16.2817 0.440369 15.9485 0.440369 15.5968V2.2696C0.440369 1.65877 0.657861 1.13586 1.09285 0.700879C1.52783 0.265893 2.05074 0.0484009 2.66157 0.0484009H15.9888C16.5996 0.0484009 17.1225 0.265893 17.5575 0.700879C17.9925 1.13586 18.21 1.65877 18.21 2.2696V15.5968C18.21 15.9485 18.1313 16.2817 17.974 16.5963C17.8166 16.911 17.5991 17.1702 17.3215 17.3738L9.32517 23.371ZM9.32517 20.5945L15.9888 15.5968V2.2696H2.66157V15.5968L9.32517 20.5945ZM8.15904 14.4862L14.4339 8.21131L12.8791 6.60094L8.15904 11.321L5.82678 8.98874L4.21641 10.5436L8.15904 14.4862Z" fill="white"/>
</svg>
