<svg width="38" height="38" viewBox="0 0 38 38" fill="none" xmlns="http://www.w3.org/2000/svg">
<mask id="mask0_2_29" style="mask-type:alpha" maskUnits="userSpaceOnUse" x="0" y="0" width="38" height="38">
<rect x="0.720093" y="0.518311" width="37.0787" height="37.0787" fill="#D9D9D9"/>
</mask>
<g mask="url(#mask0_2_29)">
<path d="M9.75817 26.9369C11.0714 25.9327 12.5391 25.1409 14.1613 24.5616C15.7835 23.9822 17.4829 23.6925 19.2596 23.6925C21.0363 23.6925 22.7357 23.9822 24.3579 24.5616C25.9801 25.1409 27.4478 25.9327 28.761 26.9369C29.6622 25.8812 30.3639 24.6839 30.866 23.3449C31.3681 22.006 31.6192 20.5769 31.6192 19.0577C31.6192 15.6331 30.4154 12.717 28.0079 10.3094C25.6003 7.90188 22.6842 6.69811 19.2596 6.69811C15.835 6.69811 12.9189 7.90188 10.5113 10.3094C8.10379 12.717 6.90001 15.6331 6.90001 19.0577C6.90001 20.5769 7.15107 22.006 7.65318 23.3449C8.15528 24.6839 8.85695 25.8812 9.75817 26.9369ZM19.2596 20.6026C17.7404 20.6026 16.4594 20.0812 15.4165 19.0384C14.3737 17.9955 13.8523 16.7145 13.8523 15.1953C13.8523 13.6761 14.3737 12.3951 15.4165 11.3523C16.4594 10.3094 17.7404 9.788 19.2596 9.788C20.7788 9.788 22.0598 10.3094 23.1026 11.3523C24.1455 12.3951 24.6669 13.6761 24.6669 15.1953C24.6669 16.7145 24.1455 17.9955 23.1026 19.0384C22.0598 20.0812 20.7788 20.6026 19.2596 20.6026ZM19.2596 34.5072C17.1224 34.5072 15.114 34.1016 13.2343 33.2905C11.3546 32.4794 9.71954 31.3786 8.32909 29.9882C6.93864 28.5977 5.83786 26.9627 5.02677 25.083C4.21567 23.2033 3.81012 21.1949 3.81012 19.0577C3.81012 16.9205 4.21567 14.9121 5.02677 13.0324C5.83786 11.1527 6.93864 9.51764 8.32909 8.12719C9.71954 6.73673 11.3546 5.63596 13.2343 4.82486C15.114 4.01376 17.1224 3.60822 19.2596 3.60822C21.3968 3.60822 23.4052 4.01376 25.2849 4.82486C27.1646 5.63596 28.7996 6.73673 30.1901 8.12719C31.5805 9.51764 32.6813 11.1527 33.4924 13.0324C34.3035 14.9121 34.7091 16.9205 34.7091 19.0577C34.7091 21.1949 34.3035 23.2033 33.4924 25.083C32.6813 26.9627 31.5805 28.5977 30.1901 29.9882C28.7996 31.3786 27.1646 32.4794 25.2849 33.2905C23.4052 34.1016 21.3968 34.5072 19.2596 34.5072ZM19.2596 31.4173C20.6243 31.4173 21.9118 31.2177 23.122 30.8186C24.3322 30.4195 25.4394 29.8466 26.4436 29.0998C25.4394 28.3531 24.3322 27.7802 23.122 27.3811C21.9118 26.982 20.6243 26.7824 19.2596 26.7824C17.8949 26.7824 16.6074 26.982 15.3972 27.3811C14.187 27.7802 13.0798 28.3531 12.0756 29.0998C13.0798 29.8466 14.187 30.4195 15.3972 30.8186C16.6074 31.2177 17.8949 31.4173 19.2596 31.4173ZM19.2596 17.5127C19.9291 17.5127 20.4827 17.2939 20.9204 16.8561C21.3581 16.4184 21.577 15.8648 21.577 15.1953C21.577 14.5258 21.3581 13.9722 20.9204 13.5345C20.4827 13.0968 19.9291 12.8779 19.2596 12.8779C18.5901 12.8779 18.0365 13.0968 17.5988 13.5345C17.161 13.9722 16.9422 14.5258 16.9422 15.1953C16.9422 15.8648 17.161 16.4184 17.5988 16.8561C18.0365 17.2939 18.5901 17.5127 19.2596 17.5127Z" fill="white"/>
</g>
</svg>
