<svg width="43" height="44" viewBox="0 0 43 44" fill="none" xmlns="http://www.w3.org/2000/svg">
<mask id="mask0_2_82" style="mask-type:alpha" maskUnits="userSpaceOnUse" x="0" y="0" width="43" height="44">
<rect y="0.584656" width="42.946" height="42.946" fill="#D9D9D9"/>
</mask>
<g mask="url(#mask0_2_82)">
<path d="M16.1047 23.8471H19.6836V18.9262H23.2624V23.8471H26.8412V15.3473L21.473 11.7685L16.1047 15.3473V23.8471ZM21.473 35.2099C25.1115 31.8696 27.8105 28.8351 29.5701 26.1062C31.3297 23.3773 32.2095 20.9542 32.2095 18.8367C32.2095 15.5859 31.1731 12.9242 29.1004 10.8514C27.0276 8.77869 24.4852 7.74232 21.473 7.74232C18.4608 7.74232 15.9183 8.77869 13.8456 10.8514C11.7729 12.9242 10.7365 15.5859 10.7365 18.8367C10.7365 20.9542 11.6163 23.3773 13.3759 26.1062C15.1355 28.8351 17.8345 31.8696 21.473 35.2099ZM21.473 39.9518C16.6714 35.866 13.0851 32.0709 10.7141 28.5667C8.34314 25.0624 7.15765 21.8191 7.15765 18.8367C7.15765 14.3632 8.59664 10.7992 11.4746 8.14494C14.3526 5.49063 17.6854 4.16348 21.473 4.16348C25.2606 4.16348 28.5934 5.49063 31.4714 8.14494C34.3493 10.7992 35.7883 14.3632 35.7883 18.8367C35.7883 21.8191 34.6028 25.0624 32.2319 28.5667C29.8609 32.0709 26.2746 35.866 21.473 39.9518Z" fill="white"/>
</g>
</svg>
