<svg width="38" height="38" viewBox="0 0 38 38" fill="none" xmlns="http://www.w3.org/2000/svg">
<mask id="mask0_2_23" style="mask-type:alpha" maskUnits="userSpaceOnUse" x="0" y="0" width="38" height="38">
<rect x="0.562622" y="0.518311" width="37.0787" height="37.0787" fill="#D9D9D9"/>
</mask>
<g mask="url(#mask0_2_23)">
<path d="M6.74242 31.4172C5.8927 31.4172 5.16529 31.1147 4.56018 30.5096C3.95508 29.9045 3.65253 29.1771 3.65253 28.3274V9.78798C3.65253 8.93826 3.95508 8.21085 4.56018 7.60575C5.16529 7.00064 5.8927 6.69809 6.74242 6.69809H31.4616C32.3113 6.69809 33.0387 7.00064 33.6438 7.60575C34.2489 8.21085 34.5515 8.93826 34.5515 9.78798V28.3274C34.5515 29.1771 34.2489 29.9045 33.6438 30.5096C33.0387 31.1147 32.3113 31.4172 31.4616 31.4172H6.74242ZM19.102 20.6026L6.74242 12.8779V28.3274H31.4616V12.8779L19.102 20.6026ZM19.102 17.5127L31.4616 9.78798H6.74242L19.102 17.5127ZM6.74242 12.8779V9.78798V28.3274V12.8779Z" fill="white"/>
</g>
</svg>
