<svg width="38" height="38" viewBox="0 0 38 38" fill="none" xmlns="http://www.w3.org/2000/svg">
<mask id="mask0_2_26" style="mask-type:alpha" maskUnits="userSpaceOnUse" x="0" y="0" width="38" height="38">
<rect x="0.641235" y="0.518311" width="37.0787" height="37.0787" fill="#D9D9D9"/>
</mask>
<g mask="url(#mask0_2_26)">
<path d="M6.82104 29.8723V26.7824H9.91094V15.9678C9.91094 13.8306 10.5547 11.9316 11.8421 10.2708C13.1296 8.60998 14.8033 7.52208 16.8632 7.0071V5.92564C16.8632 5.28191 17.0885 4.73474 17.5391 4.28413C17.9897 3.83352 18.5369 3.60822 19.1806 3.60822C19.8244 3.60822 20.3715 3.83352 20.8221 4.28413C21.2727 4.73474 21.498 5.28191 21.498 5.92564V7.0071C23.558 7.52208 25.2317 8.60998 26.5191 10.2708C27.8066 11.9316 28.4503 13.8306 28.4503 15.9678V26.7824H31.5402V29.8723H6.82104ZM19.1806 34.5072C18.3309 34.5072 17.6035 34.2046 16.9984 33.5995C16.3933 32.9944 16.0907 32.267 16.0907 31.4173H22.2705C22.2705 32.267 21.968 32.9944 21.3629 33.5995C20.7578 34.2046 20.0303 34.5072 19.1806 34.5072ZM13.0008 26.7824H25.3604V15.9678C25.3604 14.2684 24.7553 12.8135 23.5451 11.6033C22.3349 10.3931 20.8801 9.788 19.1806 9.788C17.4812 9.788 16.0264 10.3931 14.8161 11.6033C13.6059 12.8135 13.0008 14.2684 13.0008 15.9678V26.7824Z" fill="white"/>
</g>
</svg>
