<svg width="24" height="24" viewBox="0 0 24 24" fill="none" xmlns="http://www.w3.org/2000/svg">
<path d="M21.9414 23.8306L13.7004 15.5896C13.0464 16.1129 12.2942 16.5271 11.444 16.8323C10.5937 17.1375 9.68896 17.2901 8.7297 17.2901C6.35333 17.2901 4.34215 16.4671 2.69613 14.8211C1.05012 13.1751 0.227112 11.1639 0.227112 8.78756C0.227112 6.4112 1.05012 4.40001 2.69613 2.75399C4.34215 1.10798 6.35333 0.284973 8.7297 0.284973C11.1061 0.284973 13.1173 1.10798 14.7633 2.75399C16.4093 4.40001 17.2323 6.4112 17.2323 8.78756C17.2323 9.74683 17.0797 10.6516 16.7745 11.5018C16.4692 12.3521 16.055 13.1043 15.5318 13.7583L23.7727 21.9993L21.9414 23.8306ZM8.7297 14.674C10.3648 14.674 11.7547 14.1017 12.8992 12.9571C14.0438 11.8125 14.6161 10.4227 14.6161 8.78756C14.6161 7.15245 14.0438 5.7626 12.8992 4.61802C11.7547 3.47344 10.3648 2.90115 8.7297 2.90115C7.09459 2.90115 5.70474 3.47344 4.56016 4.61802C3.41558 5.7626 2.84329 7.15245 2.84329 8.78756C2.84329 10.4227 3.41558 11.8125 4.56016 12.9571C5.70474 14.1017 7.09459 14.674 8.7297 14.674Z" fill="white" fill-opacity="0.94"/>
</svg>
